<?xml version="1.0" encoding="utf-8"?>
<!-- Generator: Adobe Illustrator 22.1.0, SVG Export Plug-In . SVG Version: 6.00 Build 0)  -->
<svg version="1.1" id="Calque_1" xmlns="http://www.w3.org/2000/svg" xmlns:xlink="http://www.w3.org/1999/xlink" x="0px" y="0px"
	width="150" height="140"  viewBox="0 0 150 140" style="enable-background:new 0 0 150 140;" xml:space="preserve">
<style type="text/css">
	.st0{fill:#FD5300;}
</style>
<g transform="translate(0.009 -0.091)">
	<g transform="translate(-0.009 0.091)">
		<g transform="translate(45.762 93.859)">
			<path class="st0" d="M28.3,27c2.2,0,3.9-1.8,3.9-3.9s-1.8-3.9-3.9-3.9s-3.9,1.8-3.9,3.9c0,0,0,0,0,0C24.4,25.2,26.1,27,28.3,27
				C28.2,27,28.3,27,28.3,27"/>
		</g>
		<path class="st0" d="M88.2,118.7c-1.1,0-2.1-0.6-2.7-1.6c-0.5-0.9-0.6-1.9-0.2-2.8c0.4-0.9,1.1-1.6,2-1.9
			c23.6-6.7,37.3-31.2,30.6-54.8c-5.4-19.1-22.9-32.3-42.8-32.3h-1.3c-11.8,0.3-23,5.3-31,13.9c-8.1,8.5-12.5,20-12.2,31.8
			c0.6,18.7,12.8,35.1,30.5,41.1c1.6,0.6,2.5,2.3,2,4c-0.5,1.6-2.2,2.5-3.8,2c-26.6-8.7-41.2-37.4-32.4-64c2.3-7.1,6.2-13.6,11.3-19
			c19.2-20.3,51.3-21.2,71.6-2c9.8,9.2,15.5,22,15.8,35.4c0.7,23.1-14.3,43.7-36.5,50.1C88.9,118.7,88.6,118.7,88.2,118.7z"/>
	</g>
	<g transform="translate(63.143 43.503)">
		<path class="st0" d="M27.5,40.5c-0.8,0-1.6-0.3-2.2-0.9c-1.2-1.2-1.3-3.1-0.1-4.3c0,0,0.1-0.1,0.1-0.1l14.9-15
			c1.2-1.2,3.2-1.2,4.4,0c1.2,1.2,1.2,3.2,0,4.4l-14.9,15C29.1,40.1,28.3,40.5,27.5,40.5z"/>
		<path class="st0" d="M42.4,40.5c-0.8,0-1.6-0.3-2.2-0.9l-14.9-15c-1.2-1.2-1.2-3.2,0-4.4s3.2-1.2,4.4,0l0,0l14.9,15
			c1.2,1.2,1.3,3.1,0.1,4.3c0,0-0.1,0.1-0.1,0.1C44.1,40.2,43.2,40.5,42.4,40.5z"/>
	</g>
	<path class="st0" d="M52.7,53.9c-0.7-0.1-1.5,0.1-2,0.6c-0.2,0.2-0.5,0.6-1.4,1.9c-0.6,0.9-1.3,1.7-2.2,2.4c-1,0.8-2.1,1.5-3.3,2
		c-0.8,0.3-1.5,0.7-2.2,1.3c-0.7,0.6-1.1,1.4-1.1,2.3c0,1.7,1.4,3.1,3.1,3.1c0.8,0,2-0.3,5-2.3v14.3c-0.1,1.1,0.3,2.1,0.9,3
		c0.7,0.8,1.7,1.2,2.7,1.1c1.4,0,3.6-0.6,3.6-4.9V58c0-1-0.3-2-0.8-2.8C54.6,54.3,53.7,53.9,52.7,53.9z"/>
	<path class="st0" d="M81.6,59.8L81.6,59.8c-0.5-1.2-1.3-2.3-2.2-3.3c-0.9-0.9-1.9-1.6-3.1-2c-1.3-0.5-2.6-0.7-3.9-0.6
		c-1.9-0.1-3.9,0.5-5.5,1.6c-1.6,1.1-2.9,2.7-3.6,4.5c-0.5,1.3-0.8,2.7-0.9,4.1c-0.2,1.7-0.3,3.4-0.3,5.2c0,1.4,0.1,2.7,0.3,4.1
		c0.1,1.2,0.5,2.4,0.9,3.6c0.7,2,2,3.7,3.8,4.9c1.6,1.2,3.6,1.8,5.6,1.7c1.7,0,3.5-0.4,5-1.3c1.5-1,2.7-2.3,3.6-3.8
		c0.8-1.3,1.3-2.7,1.4-4.2c0.3-1.8,0.4-3.5,0.3-5.3C83.1,65,82.7,62,81.6,59.8z M75.8,68.6c0,1.8-0.1,3.7-0.3,5.5
		c-0.1,1-0.5,2-1.1,2.8c-0.4,0.5-1.1,0.8-1.7,0.8c-0.7,0.1-1.3-0.2-1.7-0.8c-0.6-0.8-1-1.8-1.1-2.8c-0.3-1.8-0.4-3.5-0.3-5.3
		c-0.1-2.4,0.2-4.7,0.8-7.1c0.5-1.1,1.1-1.7,2.2-1.7c0.6-0.1,1.3,0.1,1.7,0.6c0.5,0.8,0.9,1.7,1.1,2.7C75.6,65,75.8,66.8,75.8,68.6
		L75.8,68.6z"/>
</g>
</svg>
